# xmcd
#
# Track frame offsets: 
#        183
#        16008
#        30725
#        47390
#        63285
#        79633
#        95015
#        110075
#        126298
#        147573
#        157248
#        173640
#
# Disc length: 2572 seconds
#
# Revision: 2
# Processed by: cddbd v1.5.2PL0 Copyright (c) Steve Scherf et al.
# Submitted via: ExactAudioCopy v0.95b4
#
DISCID=9c0a0a0c
DTITLE=Professor Longhair - Rock 'n' Roll Gumbo
DYEAR=1974
DGENRE=Blues
TTITLE0=Junco Partner
TTITLE1=Meet Me Tomorrow Night
TTITLE2=Doin' It
TTITLE3=How Long Has That Train Been Gone
TTITLE4=Tipitina
TTITLE5=Rockin' Pneumonia And The Boogie Woogie Flu
TTITLE6=Jambalaya (On The Bayou)
TTITLE7=Mean Ol' World
TTITLE8=Stag-O-Lee
TTITLE9=Mess Around
TTITLE10=Hey Now Baby
TTITLE11=(They Call Me) Professor Longhair
EXTD=
EXTT0=
EXTT1=
EXTT2=
EXTT3=
EXTT4=
EXTT5=
EXTT6=
EXTT7=
EXTT8=
EXTT9=
EXTT10=
EXTT11=
PLAYORDER=
